<svg width="184" height="165" viewBox="0 0 184 165" fill="none" xmlns="http://www.w3.org/2000/svg">
<g clip-path="url(#clip0_1_2)">
<path d="M157.36 17.22C141.81 1.73 119.45 0 92.13 0C64.81 0 42.38 1.75 26.83 17.28C11.28 32.81 9.70999 55.17 9.70999 82.49C9.70999 109.81 11.29 132.19 26.84 147.72C42.39 163.25 64.77 164.83 92.13 164.83C119.49 164.83 141.87 163.25 157.41 147.72C172.95 132.19 174.54 109.82 174.54 82.49C174.54 55.16 172.94 32.75 157.36 17.22ZM86.06 113C86.06 113.265 85.9546 113.52 85.7671 113.707C85.5796 113.895 85.3252 114 85.06 114H71C70.7348 114 70.4804 113.895 70.2929 113.707C70.1053 113.52 70 113.265 70 113V76.2C70 75.9348 70.1053 75.6804 70.2929 75.4929C70.4804 75.3054 70.7348 75.2 71 75.2H85C85.2652 75.2 85.5196 75.3054 85.7071 75.4929C85.8946 75.6804 86 75.9348 86 76.2L86.06 113ZM113.58 113C113.58 113.265 113.475 113.52 113.287 113.707C113.1 113.895 112.845 114 112.58 114H99.16C98.8948 114 98.6404 113.895 98.4529 113.707C98.2654 113.52 98.16 113.265 98.16 113V81.24C98.16 75.71 97.83 70.01 94.97 67.15C92.52 64.69 87.97 64.15 83.16 64.01H58.87C58.6048 64.01 58.3504 64.1154 58.1629 64.3029C57.9753 64.4904 57.87 64.7448 57.87 65.01V113C57.8702 113.136 57.8427 113.27 57.7894 113.395C57.736 113.519 57.6579 113.632 57.5596 113.725C57.4614 113.819 57.3452 113.892 57.218 113.939C57.0909 113.986 56.9555 114.007 56.82 114H43.4C43.1348 114 42.8804 113.895 42.6929 113.707C42.5053 113.52 42.4 113.265 42.4 113V51.88C42.4 51.6148 42.5053 51.3604 42.6929 51.1729C42.8804 50.9854 43.1348 50.88 43.4 50.88H82C92.1 50.88 102.65 51.34 107.86 56.55C113.07 61.76 113.55 72.32 113.55 82.43L113.58 113ZM141.14 113C141.14 113.265 141.035 113.52 140.847 113.707C140.66 113.895 140.405 114 140.14 114H126.72C126.455 114 126.2 113.895 126.013 113.707C125.825 113.52 125.72 113.265 125.72 113V51.88C125.72 51.6148 125.825 51.3604 126.013 51.1729C126.2 50.9854 126.455 50.88 126.72 50.88H140.1C140.365 50.88 140.62 50.9854 140.807 51.1729C140.995 51.3604 141.1 51.6148 141.1 51.88L141.14 113Z" fill="#FF6900"/>
<path d="M85 75.18H71C70.7348 75.18 70.4804 75.2853 70.2929 75.4729C70.1054 75.6604 70 75.9148 70 76.18V113C70 113.265 70.1054 113.52 70.2929 113.707C70.4804 113.895 70.7348 114 71 114H85C85.2652 114 85.5196 113.895 85.7071 113.707C85.8946 113.52 86 113.265 86 113V76.2C86.0027 76.067 85.9788 75.9348 85.9297 75.8112C85.8806 75.6875 85.8074 75.5749 85.7143 75.4799C85.6211 75.3849 85.51 75.3095 85.3874 75.258C85.2647 75.2065 85.133 75.18 85 75.18Z" fill="white"/>
<path d="M126.72 114H140.1C140.365 114 140.62 113.895 140.807 113.707C140.995 113.52 141.1 113.265 141.1 113V51.88C141.1 51.6148 140.995 51.3604 140.807 51.1729C140.62 50.9854 140.365 50.88 140.1 50.88H126.72C126.455 50.88 126.2 50.9854 126.013 51.1729C125.825 51.3604 125.72 51.6148 125.72 51.88V113C125.72 113.265 125.825 113.52 126.013 113.707C126.2 113.895 126.455 114 126.72 114Z" fill="white"/>
<path d="M43.4 114H56.79C56.9255 114.007 57.0609 113.986 57.188 113.939C57.3152 113.892 57.4314 113.819 57.5296 113.725C57.6279 113.632 57.706 113.519 57.7594 113.395C57.8127 113.27 57.8402 113.136 57.84 113V65C57.84 64.7348 57.9453 64.4804 58.1329 64.2929C58.3204 64.1053 58.5748 64 58.84 64H83.12C87.89 64.11 92.48 64.68 94.93 67.14C97.79 70 98.11 75.7 98.12 81.23V113C98.12 113.265 98.2254 113.52 98.4129 113.707C98.6004 113.895 98.8548 114 99.12 114H112.5C112.765 114 113.02 113.895 113.207 113.707C113.395 113.52 113.5 113.265 113.5 113V82.41C113.5 72.3 113.03 61.77 107.81 56.53C102.59 51.29 92.13 50.86 82 50.86H43.4C43.1348 50.86 42.8804 50.9653 42.6929 51.1529C42.5053 51.3404 42.4 51.5948 42.4 51.86V113C42.4 113.265 42.5053 113.52 42.6929 113.707C42.8804 113.895 43.1348 114 43.4 114Z" fill="white"/>
</g>
<defs>
<clipPath id="clip0_1_2">
<rect width="184" height="165" fill="white"/>
</clipPath>
</defs>
</svg>
